<svg xmlns="http://www.w3.org/2000/svg" height="119.16" width="123.132"><path d="M111.535 60.775c-7.86 4.26-16.22-2.5-16.22-2.5l1.01 50.11s-8.1.25-26.85 5.01-40.03-5.51-40.03-5.51l.51-46.61s6.08-1.5-2.03-.5-23.31-11.02-23.31-11.02 3.8-8.52 10.64-22.55c6.84-14.04 10.64-12.53 12.67-13.03 2.03-.5 16.72-5.52 16.72-5.52 19 12.28 34.46-1.5 34.46-1.5h1.52s3.54 2.51 10.13 5.01c6.59 2.51 16.22 8.02 19.26 12.03 3.04 4.01 8.61 32.57 8.61 32.57s.76-.25-7.09 4.01zm-65.3-53.62l2.49-2.48c7.16 5.95 27.47 0 27.47 0l1.66 1.65c-18.64 10.26-31.62.83-31.62.83z" fill="none" stroke="#fff"/></svg>