<svg xmlns="http://www.w3.org/2000/svg" width="81" height="122"><path d="M60.75 65.07l-8.1-28.47L72.9 48.8 81 77.27l-20.25-12.2zM20.25 24.4L12.15 0h40.5l-8.1 24.4h-24.3zm24.3 4.07l14.4 46.27.08.08-.04.04 5.81 18.67L32.4 122 0 93.53l20.25-65.06h24.3zm-8.1 8.13h-8.1l-5.2 16.97L37.3 39.36l-.85-2.76zm-4.05 73.2l20.25-20.33-1.95-6.36-22.53 22.44 4.23 4.25zM21.53 98.89l26.06-25.95-2.41-7.84-28.65 28.77 5 5.02zm-7.88-14.33l28.67-28.79-2.33-7.61-21.93 22.02-4.41 14.38z" fill="#FFF" opacity=".99"/></svg>